<?xml version="1.0" encoding="UTF-8" standalone="no"?>
<!-- Created with Inkscape (http://www.inkscape.org/) -->

<svg
   width="1080mm"
   height="1080mm"
   viewBox="0 0 1080 1080"
   version="1.1"
   id="svg1"
   xml:space="preserve"
   sodipodi:docname="ReadoraLogo.svg"
   inkscape:version="1.4 (86a8ad7, 2024-10-11)"
   inkscape:export-filename="ReadoraLogo_final.svg"
   inkscape:export-xdpi="96"
   inkscape:export-ydpi="96"
   xmlns:inkscape="http://www.inkscape.org/namespaces/inkscape"
   xmlns:sodipodi="http://sodipodi.sourceforge.net/DTD/sodipodi-0.dtd"
   xmlns:xlink="http://www.w3.org/1999/xlink"
   xmlns="http://www.w3.org/2000/svg"
   xmlns:svg="http://www.w3.org/2000/svg"><sodipodi:namedview
     id="namedview1"
     pagecolor="#ffffff"
     bordercolor="#000000"
     borderopacity="0.25"
     inkscape:showpageshadow="2"
     inkscape:pageopacity="0.0"
     inkscape:pagecheckerboard="0"
     inkscape:deskcolor="#d1d1d1"
     inkscape:document-units="mm"
     inkscape:zoom="0.087087571"
     inkscape:cx="1578.8705"
     inkscape:cy="2175.9707"
     inkscape:window-width="1366"
     inkscape:window-height="697"
     inkscape:window-x="-8"
     inkscape:window-y="-8"
     inkscape:window-maximized="1"
     inkscape:current-layer="layer3" /><defs
     id="defs1"><linearGradient
       id="linearGradient80"
       inkscape:collect="always"><stop
         style="stop-color:#fff8aa;stop-opacity:1;"
         offset="0.25347221"
         id="stop80" /><stop
         style="stop-color:#ffd8aa;stop-opacity:1;"
         offset="1"
         id="stop81" /></linearGradient><linearGradient
       id="linearGradient77"
       inkscape:collect="always"><stop
         style="stop-color:#7fff2a;stop-opacity:1;"
         offset="0"
         id="stop77" /><stop
         style="stop-color:#55a61f;stop-opacity:1;"
         offset="1"
         id="stop78" /></linearGradient><linearGradient
       id="linearGradient73"
       inkscape:collect="always"><stop
         style="stop-color:#fff9aa;stop-opacity:1;"
         offset="0.07638891"
         id="stop73" /><stop
         style="stop-color:#ffc460;stop-opacity:1;"
         offset="0.99652779"
         id="stop74" /></linearGradient><linearGradient
       id="linearGradient71"
       inkscape:collect="always"><stop
         style="stop-color:#ff2a2a;stop-opacity:1;"
         offset="0.18375"
         id="stop71" /><stop
         style="stop-color:#9a0700;stop-opacity:1;"
         offset="0.9236111"
         id="stop72" /></linearGradient><inkscape:path-effect
       effect="bspline"
       id="path-effect40"
       is_visible="true"
       lpeversion="1.3"
       weight="33.333333"
       steps="2"
       helper_size="0"
       apply_no_weight="true"
       apply_with_weight="true"
       only_selected="false"
       uniform="false" /><inkscape:path-effect
       effect="bspline"
       id="path-effect38"
       is_visible="true"
       lpeversion="1.3"
       weight="33.333333"
       steps="2"
       helper_size="0"
       apply_no_weight="true"
       apply_with_weight="true"
       only_selected="false"
       uniform="false" /><inkscape:path-effect
       effect="bspline"
       id="path-effect37"
       is_visible="true"
       lpeversion="1.3"
       weight="33.333333"
       steps="2"
       helper_size="0"
       apply_no_weight="true"
       apply_with_weight="true"
       only_selected="false"
       uniform="false" /><inkscape:path-effect
       effect="bspline"
       id="path-effect35"
       is_visible="true"
       lpeversion="1.3"
       weight="33.333333"
       steps="2"
       helper_size="0"
       apply_no_weight="true"
       apply_with_weight="true"
       only_selected="false"
       uniform="false" /><inkscape:path-effect
       effect="bspline"
       id="path-effect34"
       is_visible="true"
       lpeversion="1.3"
       weight="33.333333"
       steps="2"
       helper_size="0"
       apply_no_weight="true"
       apply_with_weight="true"
       only_selected="false"
       uniform="false" /><inkscape:path-effect
       effect="bspline"
       id="path-effect32"
       is_visible="true"
       lpeversion="1.3"
       weight="33.333333"
       steps="2"
       helper_size="0"
       apply_no_weight="true"
       apply_with_weight="true"
       only_selected="false"
       uniform="false" /><inkscape:path-effect
       effect="bspline"
       id="path-effect28"
       is_visible="true"
       lpeversion="1.3"
       weight="33.333333"
       steps="2"
       helper_size="0"
       apply_no_weight="true"
       apply_with_weight="true"
       only_selected="false"
       uniform="false" /><inkscape:path-effect
       effect="bspline"
       id="path-effect27"
       is_visible="true"
       lpeversion="1.3"
       weight="33.333333"
       steps="2"
       helper_size="0"
       apply_no_weight="true"
       apply_with_weight="true"
       only_selected="false"
       uniform="false" /><inkscape:path-effect
       effect="bspline"
       id="path-effect26"
       is_visible="true"
       lpeversion="1.3"
       weight="33.333333"
       steps="2"
       helper_size="0"
       apply_no_weight="true"
       apply_with_weight="true"
       only_selected="false"
       uniform="false" /><inkscape:path-effect
       effect="bspline"
       id="path-effect25"
       is_visible="true"
       lpeversion="1.3"
       weight="33.333333"
       steps="2"
       helper_size="0"
       apply_no_weight="true"
       apply_with_weight="true"
       only_selected="false"
       uniform="false" /><inkscape:path-effect
       effect="bspline"
       id="path-effect24"
       is_visible="true"
       lpeversion="1.3"
       weight="33.333333"
       steps="2"
       helper_size="0"
       apply_no_weight="true"
       apply_with_weight="true"
       only_selected="false"
       uniform="false" /><inkscape:path-effect
       effect="bspline"
       id="path-effect23"
       is_visible="true"
       lpeversion="1.3"
       weight="33.333333"
       steps="2"
       helper_size="0"
       apply_no_weight="true"
       apply_with_weight="true"
       only_selected="false"
       uniform="false" /><inkscape:path-effect
       effect="bspline"
       id="path-effect21"
       is_visible="true"
       lpeversion="1.3"
       weight="33.333333"
       steps="2"
       helper_size="0"
       apply_no_weight="true"
       apply_with_weight="true"
       only_selected="false"
       uniform="false" /><inkscape:path-effect
       effect="bspline"
       id="path-effect20"
       is_visible="true"
       lpeversion="1.3"
       weight="33.333333"
       steps="2"
       helper_size="0"
       apply_no_weight="true"
       apply_with_weight="true"
       only_selected="false"
       uniform="false" /><inkscape:path-effect
       effect="bspline"
       id="path-effect18"
       is_visible="true"
       lpeversion="1.3"
       weight="33.333333"
       steps="2"
       helper_size="0"
       apply_no_weight="true"
       apply_with_weight="true"
       only_selected="false"
       uniform="false" /><inkscape:path-effect
       effect="bspline"
       id="path-effect16"
       is_visible="true"
       lpeversion="1.3"
       weight="33.333333"
       steps="2"
       helper_size="0"
       apply_no_weight="true"
       apply_with_weight="true"
       only_selected="false"
       uniform="false" /><inkscape:path-effect
       effect="bspline"
       id="path-effect14"
       is_visible="true"
       lpeversion="1.3"
       weight="33.333333"
       steps="2"
       helper_size="0"
       apply_no_weight="true"
       apply_with_weight="true"
       only_selected="false"
       uniform="false" /><linearGradient
       inkscape:collect="always"
       xlink:href="#linearGradient73"
       id="linearGradient74"
       x1="2363.7446"
       y1="1105.843"
       x2="1715.8282"
       y2="3225.0823"
       gradientUnits="userSpaceOnUse" /><linearGradient
       inkscape:collect="always"
       xlink:href="#linearGradient71"
       id="linearGradient76"
       gradientUnits="userSpaceOnUse"
       x1="2041.0493"
       y1="1777.7034"
       x2="2041.0493"
       y2="2783.7976" /><linearGradient
       inkscape:collect="always"
       xlink:href="#linearGradient77"
       id="linearGradient78"
       x1="1950.4198"
       y1="1185.874"
       x2="2128.7561"
       y2="3736.2019"
       gradientUnits="userSpaceOnUse" /><linearGradient
       inkscape:collect="always"
       xlink:href="#linearGradient80"
       id="linearGradient81"
       x1="1861.3385"
       y1="1063.8362"
       x2="2207.0696"
       y2="1063.8362"
       gradientUnits="userSpaceOnUse" /></defs><g
     inkscape:groupmode="layer"
     id="layer3"
     inkscape:label="Logo"><ellipse
       style="display:inline;fill:none;fill-opacity:1;stroke:#4b2424;stroke-width:18.13903123;stroke-linejoin:round;stroke-miterlimit:0;stroke-dasharray:none;stroke-opacity:1;paint-order:stroke fill markers"
       id="ellipse11"
       cx="538.38489"
       cy="281.3613"
       ry="53.306786"
       rx="53.199509" /><path
       style="display:inline;fill:none;fill-opacity:1;stroke:#4b2424;stroke-width:18.13903123;stroke-linejoin:round;stroke-miterlimit:0;stroke-dasharray:none;stroke-opacity:1;paint-order:stroke fill markers"
       id="ellipse12"
       sodipodi:arc-type="arc"
       sodipodi:type="arc"
       sodipodi:cx="541.68188"
       sodipodi:cy="798.63403"
       sodipodi:rx="52.631607"
       sodipodi:ry="53.311447"
       sodipodi:start="0.46604888"
       sodipodi:end="2.7251569"
       d="m 588.70037,822.59007 a 52.631607,53.311447 0 0 1 -48.32396,29.33901 52.631607,53.311447 0 0 1 -46.82805,-31.73039"
       sodipodi:open="true" /><path
       style="fill:none;fill-opacity:1;stroke:#4b2424;stroke-width:2.10734518;stroke-linecap:round;stroke-linejoin:round;stroke-miterlimit:0;stroke-dasharray:none;stroke-opacity:1;paint-order:stroke fill markers"
       d="m 65.107594,118.33047 c 0.08612,12.91817 0.172242,25.83635 0.258363,38.75452"
       id="path14"
       transform="matrix(8.6384801,0,0,8.5767023,-368.65563,-546.91135)"
       inkscape:original-d="m 65.107594,118.33047 c 0.08612,12.91817 0.172241,25.83635 0.258363,38.75452"
       inkscape:path-effect="#path-effect14" /><path
       style="fill:none;fill-opacity:1;stroke:#4b2424;stroke-width:2.09979558;stroke-linecap:round;stroke-linejoin:round;stroke-miterlimit:0;stroke-dasharray:none;stroke-opacity:1;paint-order:stroke fill markers"
       d="m 65.107594,118.33047 c 0.08612,12.91817 0.172242,25.83635 0.258363,38.75452"
       id="path15"
       transform="matrix(8.6384801,0,0,8.6384801,321.59531,-554.22158)"
       inkscape:original-d="m 65.107594,118.33047 c 0.08612,12.91817 0.172241,25.83635 0.258363,38.75452"
       inkscape:path-effect="#path-effect16" /><path
       style="fill:none;fill-opacity:1;stroke:#4b2424;stroke-width:2.01847897;stroke-linecap:round;stroke-linejoin:round;stroke-miterlimit:0;stroke-dasharray:none;stroke-opacity:1;paint-order:stroke fill markers"
       d="m 65.107594,118.33047 c 0.08612,12.91817 0.172242,25.83635 0.258363,38.75452"
       id="path16"
       transform="matrix(8.6261892,0,0,9.3617939,-322.14188,-774.52353)"
       inkscape:original-d="m 65.107594,118.33047 c 0.08612,12.91817 0.172241,25.83635 0.258363,38.75452"
       inkscape:path-effect="#path-effect18" /><path
       style="fill:none;fill-opacity:1;stroke:#4b2424;stroke-width:2.01833058;stroke-linecap:round;stroke-linejoin:round;stroke-miterlimit:0;stroke-dasharray:none;stroke-opacity:1;paint-order:stroke fill markers"
       d="m 65.107594,118.33047 c 0.08612,12.91817 0.172242,25.83635 0.258363,38.75452"
       id="path18"
       transform="matrix(8.6182318,0,0,9.3718349,277.05512,-775.99448)"
       inkscape:original-d="m 65.107594,118.33047 c 0.08612,12.91817 0.172241,25.83635 0.258363,38.75452"
       inkscape:path-effect="#path-effect20" /><path
       style="fill:none;fill-opacity:1;stroke:#4b2424;stroke-width:2.09979558;stroke-linecap:round;stroke-linejoin:round;stroke-miterlimit:0;stroke-dasharray:none;stroke-opacity:1;paint-order:stroke fill markers"
       d="m 70.399563,102.6909 c 3.661641,0.92866 7.323284,1.85733 11.177995,3.0537 3.854711,1.19638 7.902323,2.66041 11.810107,4.56586 3.907785,1.90546 7.675515,4.25221 11.443315,6.59901"
       id="path21"
       transform="matrix(8.6384801,0,0,8.6384801,-368.65563,-554.22158)"
       inkscape:original-d="m 70.399563,102.6909 c 3.661642,0.92866 7.323285,1.85732 10.984931,2.78599 4.047775,1.46409 8.095387,2.92812 12.143081,4.39218 3.767878,2.34684 7.535605,4.6936 11.303405,7.0404"
       inkscape:path-effect="#path-effect21" /><path
       style="fill:none;fill-opacity:1;stroke:#4b2424;stroke-width:2.09979558;stroke-linecap:round;stroke-linejoin:round;stroke-miterlimit:0;stroke-dasharray:none;stroke-opacity:1;paint-order:stroke fill markers"
       d="m 70.399563,102.6909 c 3.661641,0.92866 7.323284,1.85733 11.177995,3.0537 3.854711,1.19638 7.902323,2.66041 11.810107,4.56586 3.907785,1.90546 7.675515,4.25221 11.443315,6.59901"
       id="path22"
       transform="matrix(-8.6384801,0,0,8.6384801,1442.505,-554.22158)"
       inkscape:original-d="m 70.399563,102.6909 c 3.661642,0.92866 7.323285,1.85732 10.984931,2.78599 4.047775,1.46409 8.095387,2.92812 12.143081,4.39218 3.767878,2.34684 7.535605,4.6936 11.303405,7.0404"
       inkscape:path-effect="#path-effect23" /><path
       style="fill:none;fill-opacity:1;stroke:#4b2424;stroke-width:2.12090644;stroke-linecap:round;stroke-linejoin:round;stroke-miterlimit:0;stroke-dasharray:none;stroke-opacity:1;paint-order:stroke fill markers"
       d="m 65.107594,118.33047 c 1.790362,-0.91153 3.580723,-1.82306 5.371084,-2.73459"
       id="path23"
       transform="matrix(8.4025598,0,0,8.7050549,-353.38649,-562.00835)"
       inkscape:original-d="m 65.107594,118.33047 c 1.790362,-0.91153 3.580723,-1.82306 5.371084,-2.73459"
       inkscape:path-effect="#path-effect24" /><path
       style="fill:none;fill-opacity:1;stroke:#4b2424;stroke-width:2.09979558;stroke-linejoin:round;stroke-miterlimit:0;stroke-dasharray:none;stroke-opacity:1;paint-order:stroke fill markers"
       d="m 145.0118,118.33047 c -1.74282,-0.8509 -3.48565,-1.7018 -5.22847,-2.5527"
       id="path24"
       transform="matrix(8.6384801,0,0,8.6384801,-368.65563,-554.22158)"
       inkscape:original-d="m 145.0118,118.33047 c -1.74282,-0.8509 -3.48565,-1.7018 -5.22847,-2.5527"
       inkscape:path-effect="#path-effect25" /><path
       style="fill:none;fill-opacity:1;stroke:#4b2424;stroke-width:2.09979558;stroke-linecap:round;stroke-linejoin:round;stroke-miterlimit:0;stroke-dasharray:none;stroke-opacity:1;paint-order:stroke fill markers"
       d="m 110.82459,159.38151 c 1.89452,-0.37244 3.78904,-0.74488 7.12101,-1.17444 3.33198,-0.42956 8.10122,-0.91621 12.89494,-1.11275 4.79372,-0.19653 9.61162,-0.10293 14.42963,-0.009"
       id="path34"
       transform="matrix(8.6384801,0,0,8.6384801,-368.65563,-554.22158)"
       inkscape:original-d="m 110.82459,159.38151 c 1.89452,-0.37244 3.78904,-0.74488 5.68355,-1.11732 4.76944,-0.48667 9.53868,-0.97333 14.30802,-1.46 4.8181,0.0936 9.636,0.1872 14.45401,0.2808"
       inkscape:path-effect="#path-effect35" /><path
       style="fill:none;fill-opacity:1;stroke:#4b2424;stroke-width:2.09979558;stroke-linecap:round;stroke-linejoin:round;stroke-miterlimit:0;stroke-dasharray:none;stroke-opacity:1;paint-order:stroke fill markers"
       d="m 110.82459,159.38151 c 1.89452,-0.37244 3.78904,-0.74488 7.12101,-1.17444 3.33198,-0.42956 8.10122,-0.91621 12.89494,-1.11275 4.79372,-0.19653 9.61162,-0.10293 14.42963,-0.009"
       id="path35"
       transform="matrix(-8.6384801,0,0,8.6384801,1450.9044,-556.61542)"
       inkscape:original-d="m 110.82459,159.38151 c 1.89452,-0.37244 3.78904,-0.74488 5.68355,-1.11732 4.76944,-0.48667 9.53868,-0.97333 14.30802,-1.46 4.8181,0.0936 9.636,0.1872 14.45401,0.2808"
       inkscape:path-effect="#path-effect37" /><path
       style="fill:none;fill-opacity:1;stroke:#4b2424;stroke-width:2.09979558;stroke-linecap:round;stroke-linejoin:round;stroke-miterlimit:0;stroke-dasharray:none;stroke-opacity:1;paint-order:stroke fill markers"
       d="m 70.65732,144.73544 c 5.258263,1.00558 10.516523,2.01116 15.116696,3.36563 4.600172,1.35448 8.542098,3.05778 11.608125,4.83414 3.066029,1.77635 5.255989,3.62565 7.445989,5.47498"
       id="path37"
       transform="matrix(8.6384801,0,0,8.6384801,-368.65563,-554.22158)"
       inkscape:original-d="m 70.65732,144.73544 c 5.258263,1.00558 10.516523,2.01116 15.774786,3.01674 3.942082,1.70337 7.884009,3.40667 11.826015,5.11001 2.190049,1.84937 4.380009,3.69867 6.570009,5.548"
       inkscape:path-effect="#path-effect38" /><path
       style="fill:none;fill-opacity:1;stroke:#4b2424;stroke-width:2.0717906;stroke-linecap:round;stroke-linejoin:round;stroke-miterlimit:0;stroke-dasharray:none;stroke-opacity:1;paint-order:stroke fill markers"
       d="m 70.65732,144.73544 c 5.258263,1.00558 10.516523,2.01116 15.116696,3.36563 4.600172,1.35448 8.542098,3.05778 11.608125,4.83414 3.066029,1.77635 5.255989,3.62565 7.445989,5.47498"
       id="path38"
       transform="matrix(-8.8816739,0,0,8.6306192,1467.9494,-552.97626)"
       inkscape:original-d="m 70.65732,144.73544 c 5.258263,1.00558 10.516523,2.01116 15.774786,3.01674 3.942082,1.70337 7.884009,3.40667 11.826015,5.11001 2.190049,1.84937 4.380009,3.69867 6.570009,5.548"
       inkscape:path-effect="#path-effect40" /><path
       id="path91"
       style="fill:none;fill-opacity:1;stroke:#4b2424;stroke-width:18.13903123;stroke-linecap:round;stroke-linejoin:round;stroke-miterlimit:0;stroke-dasharray:none;stroke-opacity:1;paint-order:stroke fill markers"
       d="m 466.65695,487.79228 c -17.04819,0 -34.0951,6.5332 -47.15833,19.59652 -26.12644,26.12644 -26.12644,68.19016 0,94.31665 l 26.19948,26.19938 94.31997,94.32001 94.31675,-94.32001 26.19938,-26.19938 c 26.12649,-26.12649 26.12649,-68.19021 0,-94.31665 -26.1264,-26.1265 -68.19358,-26.1265 -94.32002,0 L 540.0148,533.58827 513.81869,507.3888 c -13.06327,-13.06332 -30.1135,-19.59652 -47.16174,-19.59652 z" /><path
       style="fill:url(#linearGradient76);fill-opacity:1;stroke:#4b2424;stroke-width:21.52661049;stroke-linejoin:round;stroke-miterlimit:0;stroke-opacity:1;paint-order:stroke fill markers;stroke-dasharray:none"
       d="m 1816.2959,2452.9907 c -125.5464,-126.1482 -227.8972,-233.7251 -236.3847,-248.4548 -21.4071,-37.1512 -34.6444,-93.3379 -30.0859,-127.7018 9.7807,-73.7302 56.9223,-140.9694 121.8956,-173.8625 30.4151,-15.3978 38.6828,-16.939 90.8728,-16.939 80.5568,0 104.0555,11.7678 188.7397,94.5177 62.3517,60.9275 65.8089,63.3694 89.7156,63.3694 23.9067,0 27.3639,-2.4419 89.7156,-63.3694 84.6842,-82.7499 108.1829,-94.5177 188.7398,-94.5177 52.1899,0 60.4576,1.5412 90.8727,16.939 64.9733,32.8931 112.1149,100.1323 121.8956,173.8625 4.5585,34.3639 -8.6788,90.5506 -30.0859,127.7018 -13.0291,22.6114 -452.0257,470.932 -461.1378,470.932 -1.8355,0 -102.9744,-100.1147 -224.7531,-222.4772 z"
       id="path67"
       transform="scale(0.26458333)" /><path
       style="fill:#00ff00;fill-opacity:1;stroke:#4b2424;stroke-width:21.52661049;stroke-linejoin:round;stroke-miterlimit:0;stroke-opacity:1;paint-order:stroke fill markers;stroke-dasharray:none"
       d="m 1992.9796,3172.2772 c -28.0088,-9.9839 -60.1666,-35.6438 -76.4469,-60.9999 -32.4148,-50.4847 -27.4716,-48.5762 -191.2578,-73.8445 -226.874,-35.0014 -389.2868,-46.9021 -686.5938,-50.3101 l -258.86348,-2.9673 -3.8032,-327.5297 c -2.09175,-180.1414 -3.80319,-448.3819 -3.80319,-596.0901 v -268.5602 l 47.36611,-25.961 47.36612,-25.961 3.66338,52.8949 c 2.01486,29.0922 3.95257,232.701 4.30601,452.464 0.62978,391.5814 0.87171,399.7765 12.10156,409.9394 7.99412,7.2346 60.50811,20.3006 173.67579,43.2122 250.004,50.6152 374.3342,84.5157 509.5683,138.9414 147.932,59.536 258.4037,124.4502 377.2415,221.6705 81.1662,66.4014 82.444,66.5217 147.5308,13.8804 240.3763,-194.4129 480.0243,-290.3125 942.142,-377.016 78.9435,-14.8115 149.9927,-30.1314 157.887,-34.0442 l 14.3534,-7.1142 -2.0183,-454.8315 -2.0184,-454.8315 47.9492,23.1804 47.9491,23.1805 3.5069,259.6563 c 1.9288,142.811 3.8665,414.2977 4.306,603.3038 l 0.7991,343.6475 -124.8743,-3.9948 c -251.976,-8.0606 -631.0478,18.2629 -870.3449,60.4383 -35.2327,6.2097 -73.885,12.9249 -85.8941,14.9227 -16.2282,2.6997 -25.7238,8.9597 -36.9808,24.3799 -45.9718,62.9737 -85.1198,86.7892 -142.1317,86.465 -18.9464,-0.1078 -44.4531,-3.7623 -56.6814,-8.1212 z"
       id="path68"
       transform="scale(0.26458333)" /><path
       style="fill:url(#linearGradient74);fill-opacity:1;stroke:#4b2424;stroke-width:21.52661049;stroke-linejoin:round;stroke-miterlimit:0;stroke-opacity:1;paint-order:stroke fill markers;stroke-dasharray:none"
       d="m 1980.7649,2987.7789 c -213.3951,-174.0872 -459.1361,-273.316 -895.0446,-361.4139 l -135.5273,-27.3902 -0.7549,-100.9811 c -3.83451,-512.93 -7.62901,-1186.5115 -6.69361,-1188.2162 3.25421,-5.9305 244.44841,60.6598 374.89471,103.5032 224.2133,73.6399 391.9298,154.2362 627.1989,301.4009 43.9374,27.4835 73.2806,42.1707 84.2519,42.1707 10.9424,0 40.9298,-14.953 85.6784,-42.723 318.8818,-197.8906 525.6219,-284.3993 927.8747,-388.262 47.2172,-12.1916 86.6522,-21.3636 87.6336,-20.3822 3.6285,3.6286 9.1281,1295.3453 5.515,1295.3453 -14.3677,0 -332.2931,66.4565 -397.169,83.021 -272.5557,69.5903 -471.1437,160.7945 -652.2758,299.5665 -30.3467,23.2497 -56.1828,42.173 -57.4135,42.0517 -1.2308,-0.1212 -22.9066,-17.082 -48.1685,-37.6907 z m 333.538,-480.2454 c 233.782,-234.9146 248.0957,-250.4932 265.2723,-288.713 51.636,-114.8962 29.5793,-239.4067 -57.9085,-326.8946 -62.4583,-62.4582 -126.3565,-86.4261 -218.9809,-82.1387 -87.2943,4.0408 -132.8699,26.5127 -217.2292,107.1091 l -44.9411,42.9365 -38.4873,-37.6835 c -88.599,-86.7485 -145.0265,-113.4179 -240.2651,-113.5567 -178.9437,-0.2608 -317.4241,166.481 -281.9001,339.4305 18.2399,88.8012 16.4492,86.5659 288.0014,359.5104 l 247.0467,248.3133 h 26.1379 26.138 z"
       id="path69"
       transform="scale(0.26458333)" /><path
       style="fill:url(#linearGradient81);fill-opacity:1;stroke:#4b2424;stroke-width:21.52661049;stroke-linejoin:round;stroke-miterlimit:0;stroke-opacity:1;paint-order:stroke fill markers;stroke-dasharray:none"
       d="m 1985.5443,1218.3633 c -94.798,-33.8543 -138.8081,-131.7475 -98.6576,-219.4478 59.6469,-130.28592 238.3884,-130.23845 297.2558,0.079 13.2273,29.282 15.667,80.9032 5.4372,115.0472 -24.4558,81.6263 -124.4392,132.747 -204.0354,104.3216 z"
       id="path70"
       transform="scale(0.26458333)" /><path
       style="fill:url(#linearGradient78);fill-opacity:1;stroke:#4b2424;stroke-width:21.52661049;stroke-linejoin:round;stroke-miterlimit:0;stroke-opacity:1;paint-order:stroke fill markers;stroke-dasharray:none"
       d="m 1972.1294,3156.3057 c -18.7302,-11.2402 -41.2529,-32.055 -56.6453,-52.3499 -14.0537,-18.5298 -33.5345,-37.0005 -43.2905,-41.0459 -19.0042,-7.8803 -156.795,-31.111 -271.8357,-45.8299 -141.6195,-18.1196 -279.9368,-26.0853 -543.1035,-31.2775 -147.94821,-2.9189 -269.93559,-6.2459 -271.08304,-7.3933 -3.18498,-3.185 -7.83539,-330.2093 -11.08442,-779.4731 l -2.92721,-404.765 45.52499,-24.1632 45.52499,-24.1632 3.14856,35.6459 c 1.73171,19.6052 4.21574,220.3737 5.52006,446.1522 1.30433,225.7785 4.18256,414.8949 6.39606,420.2587 5.34326,12.9479 38.15408,22.9851 155.16811,47.4681 353.0696,73.8732 486.5897,115.0192 663.1257,204.3508 87.3117,44.182 147.5017,82.9676 235.3952,151.6856 33.1563,25.9226 65.9274,50.1183 72.8247,53.7682 27.0943,14.3375 41.7482,8.1764 118.97,-50.02 245.3209,-184.8801 438.0632,-260.5752 900.5409,-353.6668 87.6517,-17.6433 166.2293,-34.6879 174.617,-37.8769 l 15.2504,-5.7982 -3.7059,-453.3506 c -2.0381,-249.3429 -2.5044,-453.3507 -1.0362,-453.3507 1.4683,0 21.7969,9.4644 45.1747,21.0321 l 42.5052,21.0321 3.7115,207.1864 c 2.0413,113.9526 4.2715,384.1635 4.9559,600.4688 l 1.2445,393.2823 -162.986,-2.0331 c -281.5095,-3.5115 -549.5771,15.9167 -833.1378,60.3818 l -94.7322,14.8549 -40.1894,41.8827 c -52.9814,55.2135 -73.7364,65.7661 -129.3493,65.7661 -38.7575,0 -46.7245,-1.9956 -74.492,-18.6594 z"
       id="path71"
       transform="scale(0.26458333)" /></g></svg>
